<svg id="foothills" viewBox="0 0 249 355">
        <rect class="ground" width="249" height="175" y="185" />
        <line x1="0" y1="187.5" x2="249" y2="187.5" stroke="white" stroke-width="6.5" />
        <g class="hill">
          <path class="hill__fill"
            d="M178.8155,175.996S102.63,137.1352,66.911,136.6305,0,153.9847,0,153.9847V298.2029H302.201V188.1046c-38.2117,0-121.1137-43.3526-156.3047-28.12" />
          <path class="hill__border"
            d="M.1936,150.91c1.2979-.7407,32.1953-18.1216,68.21-17.6338,20.35.2866,52.8789,12.4087,77.7871,23.1338,22.1255-9,59.4507,2.5518,95.56,13.7271,23.4888,7.269,45.6748,14.1348,60.4507,14.1348v6.6113c-15.5591-.8691-40.0967-7.4248-62.4341-14.3374-29.7261-9.1987-62.9531-19.481-83.93-15.89,14.1,6.3369,24.147,11.42,25.2573,11.9844l-3.041,5.98c-.75-.3813-75.4307-38.1528-109.7441-38.6362-29.58-.4092-61.269,14.9325-68.1152,18.4793Zm305.3618,149.147" />
        </g>
      </svg>